<svg id="Layer_1" data-name="Layer 1" xmlns="http://www.w3.org/2000/svg" viewBox="0 0 16 16"><defs><style>.cls-1{fill:#333;}.cls-2{fill:#e6e6e6;}.cls-3{fill:#2e3192;}.cls-4{fill:#ccc;}.cls-5{fill:#c1272d;}</style></defs><title>pluginIcon_dark</title><rect class="cls-1" y="7" width="16" height="9"/><path class="cls-2" d="M1,2.76h.45l0,.47A2.94,2.94,0,0,1,1.76,3,1.11,1.11,0,0,1,2,2.82a.65.65,0,0,1,.23-.09,1.07,1.07,0,0,1,.25,0A.87.87,0,0,1,3.17,3a1.24,1.24,0,0,1,.23.81V5.7H2.89V3.82a.8.8,0,0,0-.13-.51.45.45,0,0,0-.38-.17.52.52,0,0,0-.18,0,.58.58,0,0,0-.19.1,1.56,1.56,0,0,0-.21.18,2.82,2.82,0,0,0-.25.3v2H1Z"/><path class="cls-2" d="M6.4,5.7H5.94V5.22a2.12,2.12,0,0,1-.26.26,1.19,1.19,0,0,1-.23.16l-.24.09L5,5.75a.84.84,0,0,1-.68-.27A1.14,1.14,0,0,1,4,4.68V2.76h.51V4.64c0,.45.17.67.51.67a.55.55,0,0,0,.18,0,.7.7,0,0,0,.19-.1L5.64,5a2.77,2.77,0,0,0,.25-.29V2.76H6.4Z"/><path class="cls-2" d="M8,2H7.17V1.56H8.55V5.27h.88V5.7H7.07V5.27H8Z"/><path class="cls-2" d="M11,2h-.87V1.56h1.38V5.27h.88V5.7H10.07V5.27h1Z"/><path class="cls-2" d="M.88,11.74h.3l0,.31.16-.17a1,1,0,0,1,.16-.1.44.44,0,0,1,.16-.06l.16,0a.57.57,0,0,1,.46.18.83.83,0,0,1,.16.54V13.7H2.12V12.45A.51.51,0,0,0,2,12.11.29.29,0,0,0,1.77,12H1.65l-.12.07-.14.12-.17.2v1.3H.88Z"/><path class="cls-2" d="M4.36,13.7H4.05v-.32a.91.91,0,0,1-.17.17.72.72,0,0,1-.15.11l-.16.06H3.39a.62.62,0,0,1-.46-.17A.83.83,0,0,1,2.78,13V11.74h.34V13c0,.3.11.45.34.45a.25.25,0,0,0,.12,0l.13-.06.14-.12L4,13v-1.3h.34Z"/><path class="cls-2" d="M5.35,11.22H4.77v-.28h.92v2.48h.58v.28H4.7v-.28h.65Z"/><path class="cls-2" d="M7.25,11.22H6.67v-.28h.92v2.48h.58v.28H6.6v-.28h.65Z"/><path class="cls-2" d="M9.09,11.44H8.5v-.29H10v.29H9.44v2H10v.3H8.5v-.3h.59Z"/><path class="cls-2" d="M12.12,11.25a3,3,0,0,0-.46-.05c-.31,0-.46.16-.46.48V12h.86v.29H11.2V13.7h-.35V12.31h-.63V12h.63V11.7c0-.52.27-.78.82-.78a2.57,2.57,0,0,1,.45,0Z"/><path class="cls-2" d="M13.45,14.52a2.49,2.49,0,0,1-.9-1.85,2.59,2.59,0,0,1,0-.47,2.32,2.32,0,0,1,.15-.47,2.91,2.91,0,0,1,.28-.47,3.67,3.67,0,0,1,.43-.47l.19.2a2.3,2.3,0,0,0-.75,1.66,2,2,0,0,0,.19.87,2.73,2.73,0,0,0,.56.79Z"/><path class="cls-2" d="M14.58,10.79a2.49,2.49,0,0,1,.9,1.86,2.18,2.18,0,0,1-.05.43,3.1,3.1,0,0,1-.14.47A3,3,0,0,1,15,14a4.73,4.73,0,0,1-.44.49l-.2-.2a2.92,2.92,0,0,0,.57-.79,2.11,2.11,0,0,0,.19-.86A2.3,2.3,0,0,0,14.37,11Z"/><rect class="cls-3" y="7" width="16" height="2"/><rect class="cls-4" x="14" width="1" height="7"/><path class="cls-5" d="M6.83,9.91l-.8,1-.78,1q.21.42.42.87c.14.3.28.62.43,1L6,13.87V14L5.92,14l-.09.05,0,.13a.45.45,0,0,1-.11.13.35.35,0,0,1-.14.06c-.06,0-.17-.13-.35-.38s-.42-.63-.71-1.12c-.28.38-.55.77-.81,1.18s-.52.83-.76,1.26l-.2.07-.21,0H2.53a1.24,1.24,0,0,1-.18-.22A.56.56,0,0,1,2.28,15a.44.44,0,0,1,0-.1,1.11,1.11,0,0,1,0-.13l-.07-.13a4.85,4.85,0,0,1,.6-1c.3-.44.71-1,1.23-1.62-.1-.28-.21-.56-.31-.86s-.22-.64-.35-1A.56.56,0,0,1,3.54,10c0-.05.07-.07.1-.07l.07,0a.17.17,0,0,1,.06.06l.06,0h.1a.18.18,0,0,1,0-.07l.07,0h0c.08,0,.22.22.43.67l.32.66c.16-.17.35-.41.6-.69a4.41,4.41,0,0,1,.76-.83l.11,0,.16.12.18-.17.12.14Z"/></svg>